<svg xmlns="http://www.w3.org/2000/svg" viewBox="831 2724 43 43">
  <defs>
    <style>
      .cls-1 {
        fill: #394360;
      }
    </style>
  </defs>
  <g id="certificate" transform="translate(830.998 2724)">
    <g id="Group_51" data-name="Group 51" transform="translate(0.002)">
      <g id="Group_50" data-name="Group 50">
        <path id="Path_27" data-name="Path 27" class="cls-1" d="M40.315,0H2.69A2.688,2.688,0,0,0,0,2.688V33.146A2.688,2.688,0,0,0,2.69,35.833h21.5V34.042H2.69a.9.9,0,0,1-.9-.9V2.688a.9.9,0,0,1,.9-.9H40.315a.9.9,0,0,1,.9.9V33.146a.9.9,0,0,1-.9.9H38.523v1.792h1.792A2.688,2.688,0,0,0,43,33.146V2.688A2.688,2.688,0,0,0,40.315,0Z" transform="translate(-0.002)"/>
      </g>
    </g>
    <g id="Group_53" data-name="Group 53" transform="translate(4.481 4.479)">
      <g id="Group_52" data-name="Group 52">
        <path id="Path_28" data-name="Path 28" class="cls-1" d="M86.481,57.812A3.583,3.583,0,0,1,82.9,54.229a.9.9,0,0,0-.9-.9H58.71a.9.9,0,0,0-.9.9,3.583,3.583,0,0,1-3.583,3.583.9.9,0,0,0-.9.9V74.833a.9.9,0,0,0,.9.9,3.583,3.583,0,0,1,3.583,3.583.9.9,0,0,0,.9.9H70.356V78.416H59.532a5.39,5.39,0,0,0-4.4-4.4V59.53a5.39,5.39,0,0,0,4.4-4.4H81.18a5.39,5.39,0,0,0,4.4,4.4v7.241h1.792V58.708A.9.9,0,0,0,86.481,57.812Z" transform="translate(-53.335 -53.333)"/>
      </g>
    </g>
    <g id="Group_55" data-name="Group 55" transform="translate(23.294 18.813)">
      <g id="Group_54" data-name="Group 54">
        <path id="Path_29" data-name="Path 29" class="cls-1" d="M285.4,224a8.063,8.063,0,1,0,8.063,8.063A8.063,8.063,0,0,0,285.4,224Zm0,14.333a6.271,6.271,0,1,1,6.271-6.271A6.271,6.271,0,0,1,285.4,238.333Z" transform="translate(-277.336 -224)"/>
      </g>
    </g>
    <g id="Group_57" data-name="Group 57" transform="translate(25.981 32.25)">
      <g id="Group_56" data-name="Group 56">
        <path id="Path_30" data-name="Path 30" class="cls-1" d="M318.294,384v7.99l-3.023-2.419a.9.9,0,0,0-1.12,0l-3.023,2.419V384h-1.792v9.854a.9.9,0,0,0,1.456.7l3.919-3.135,3.919,3.135a.9.9,0,0,0,1.456-.7V384Z" transform="translate(-309.336 -384)"/>
      </g>
    </g>
    <g id="Group_59" data-name="Group 59" transform="translate(11.648 8.958)">
      <g id="Group_58" data-name="Group 58">
        <path id="Path_31" data-name="Path 31" class="cls-1" d="M157.482,106.667H139.565a.9.9,0,0,0-.9.9v3.583a.9.9,0,0,0,.9.9h17.917a.9.9,0,0,0,.9-.9v-3.583A.9.9,0,0,0,157.482,106.667Zm-.9,3.583H140.461v-1.792h16.125Z" transform="translate(-138.669 -106.667)"/>
      </g>
    </g>
    <g id="Group_61" data-name="Group 61" transform="translate(10.752 17.021)">
      <g id="Group_60" data-name="Group 60">
        <rect id="Rectangle_45" data-name="Rectangle 45" class="cls-1" width="1.792" height="1.792"/>
      </g>
    </g>
    <g id="Group_63" data-name="Group 63" transform="translate(14.335 17.021)">
      <g id="Group_62" data-name="Group 62">
        <rect id="Rectangle_46" data-name="Rectangle 46" class="cls-1" width="1.792" height="1.792"/>
      </g>
    </g>
    <g id="Group_65" data-name="Group 65" transform="translate(10.752 20.604)">
      <g id="Group_64" data-name="Group 64">
        <rect id="Rectangle_47" data-name="Rectangle 47" class="cls-1" width="10.75" height="1.792"/>
      </g>
    </g>
    <g id="Group_67" data-name="Group 67" transform="translate(26.877 22.396)">
      <g id="Group_66" data-name="Group 66">
        <path id="Path_32" data-name="Path 32" class="cls-1" d="M324.482,266.667a4.479,4.479,0,1,0,4.479,4.479A4.479,4.479,0,0,0,324.482,266.667Zm0,7.167a2.688,2.688,0,1,1,2.688-2.687A2.687,2.687,0,0,1,324.482,273.834Z" transform="translate(-320.003 -266.667)"/>
      </g>
    </g>
    <g id="Group_69" data-name="Group 69" transform="translate(4.481 29.563)">
      <g id="Group_68" data-name="Group 68">
        <rect id="Rectangle_48" data-name="Rectangle 48" class="cls-1" width="1.792" height="1.792"/>
      </g>
    </g>
    <g id="Group_71" data-name="Group 71" transform="translate(36.731 4.479)">
      <g id="Group_70" data-name="Group 70">
        <rect id="Rectangle_49" data-name="Rectangle 49" class="cls-1" width="1.792" height="1.792"/>
      </g>
    </g>
    <g id="Group_73" data-name="Group 73" transform="translate(4.481 4.479)">
      <g id="Group_72" data-name="Group 72">
        <rect id="Rectangle_50" data-name="Rectangle 50" class="cls-1" width="1.792" height="1.792"/>
      </g>
    </g>
  </g>
</svg>
