<svg xmlns="http://www.w3.org/2000/svg" viewBox="1150 2725 40.776 43">
  <defs>
    <style>
      .cls-1 {
        fill: #394360;
      }
    </style>
  </defs>
  <g id="document" transform="translate(1138 2725)">
    <g id="Group_25" data-name="Group 25" transform="translate(20.155 4.448)">
      <g id="Group_24" data-name="Group 24" transform="translate(0)">
        <path id="Path_23" data-name="Path 23" class="cls-1" d="M104.352,53.408a2.109,2.109,0,0,0-1.074-1.262l-1.445-.723a.633.633,0,0,1,.282-1.2h.216a.635.635,0,0,1,.633.633v.108h1.483v-.108a2.112,2.112,0,0,0-1.483-2.008V48h-1.483v.849a2.108,2.108,0,0,0-.313,3.9l1.445.723a.633.633,0,0,1-.282,1.2h-.216a.635.635,0,0,1-.633-.633v-.108H100v.108a2.112,2.112,0,0,0,1.483,2.008V56.9h1.483v-.849A2.108,2.108,0,0,0,104.352,53.408Z" transform="translate(-99.999 -48)"/>
      </g>
    </g>
    <g id="Group_27" data-name="Group 27" transform="translate(19.414 21.5)">
      <g id="Group_26" data-name="Group 26">
        <rect id="Rectangle_36" data-name="Rectangle 36" class="cls-1" width="12.603" height="1.483"/>
      </g>
    </g>
    <g id="Group_29" data-name="Group 29" transform="translate(19.414 24.466)">
      <g id="Group_28" data-name="Group 28">
        <rect id="Rectangle_37" data-name="Rectangle 37" class="cls-1" width="12.603" height="1.483"/>
      </g>
    </g>
    <g id="Group_31" data-name="Group 31" transform="translate(19.414 27.431)">
      <g id="Group_30" data-name="Group 30">
        <rect id="Rectangle_38" data-name="Rectangle 38" class="cls-1" width="8.897" height="1.483"/>
      </g>
    </g>
    <g id="Group_33" data-name="Group 33" transform="translate(23.862 18.534)">
      <g id="Group_32" data-name="Group 32" transform="translate(0)">
        <rect id="Rectangle_39" data-name="Rectangle 39" class="cls-1" width="8.155" height="1.483"/>
      </g>
    </g>
    <g id="Group_35" data-name="Group 35" transform="translate(27.569 8.155)">
      <g id="Group_34" data-name="Group 34">
        <rect id="Rectangle_40" data-name="Rectangle 40" class="cls-1" width="13.345" height="1.483"/>
      </g>
    </g>
    <g id="Group_37" data-name="Group 37" transform="translate(27.569 11.121)">
      <g id="Group_36" data-name="Group 36">
        <rect id="Rectangle_41" data-name="Rectangle 41" class="cls-1" width="10.379" height="1.483"/>
      </g>
    </g>
    <g id="Group_39" data-name="Group 39" transform="translate(32.017 5.19)">
      <g id="Group_38" data-name="Group 38">
        <rect id="Rectangle_42" data-name="Rectangle 42" class="cls-1" width="8.897" height="1.483"/>
      </g>
    </g>
    <g id="Group_41" data-name="Group 41" transform="translate(12)">
      <g id="Group_40" data-name="Group 40" transform="translate(0)">
        <path id="Path_24" data-name="Path 24" class="cls-1" d="M49.81,34.1H45.632l2.952-9.341a7.24,7.24,0,0,0-3.963-8.815V7.414h3.707a.741.741,0,0,0,.741-.741V2.966A2.966,2.966,0,0,0,46.1,0H18.672a2.966,2.966,0,0,0-2.966,2.966V31.138H12.741a.741.741,0,0,0-.741.741v2.966a2.966,2.966,0,0,0,2.966,2.966H30.64a2.966,2.966,0,0,0,2.86,2.224v2.224a.741.741,0,0,0,.741.741H49.069a.741.741,0,0,0,.741-.741V40.034a2.966,2.966,0,1,0,0-5.931ZM44.621,2.966a1.483,1.483,0,0,1,2.966,0V5.931H44.621Zm1.121,15.519a5.783,5.783,0,0,1,1.426,5.831l0,0L44.078,34.1h-5.56l-2.606-9.909a5.8,5.8,0,0,1,1.5-5.56l.148-.148A5.783,5.783,0,0,1,45.742,18.484ZM17.19,2.966a1.483,1.483,0,0,1,1.483-1.483H43.55a2.935,2.935,0,0,0-.412,1.483v12.5a7.266,7.266,0,0,0-6.621,1.969l-.148.148a7.291,7.291,0,0,0-1.889,6.987l1.726,6.569H17.19ZM30.64,36.328H14.966a1.483,1.483,0,0,1-1.483-1.483V32.621H36.6l.39,1.483H33.5A2.966,2.966,0,0,0,30.64,36.328Zm17.688,5.19H34.983V40.034H48.328Zm1.483-2.966H33.5a1.483,1.483,0,1,1,0-2.966H49.81a1.483,1.483,0,0,1,0,2.966Z" transform="translate(-12)"/>
      </g>
    </g>
    <g id="Group_43" data-name="Group 43" transform="translate(29.052 5.19)">
      <g id="Group_42" data-name="Group 42">
        <rect id="Rectangle_43" data-name="Rectangle 43" class="cls-1" width="1.483" height="1.483"/>
      </g>
    </g>
    <g id="Group_45" data-name="Group 45" transform="translate(20.897 18.534)">
      <g id="Group_44" data-name="Group 44">
        <rect id="Rectangle_44" data-name="Rectangle 44" class="cls-1" width="1.483" height="1.483"/>
      </g>
    </g>
    <g id="Group_47" data-name="Group 47" transform="translate(37.207 19.424)">
      <g id="Group_46" data-name="Group 46" transform="translate(0)">
        <path id="Path_25" data-name="Path 25" class="cls-1" d="M286.669,210.786l-.89-1.186a4.451,4.451,0,0,0-1.409,5.338l1.358-.593A2.969,2.969,0,0,1,286.669,210.786Z" transform="translate(-284 -209.6)"/>
      </g>
    </g>
    <g id="Group_49" data-name="Group 49" transform="translate(40.766 18.535)">
      <g id="Group_48" data-name="Group 48">
        <path id="Path_26" data-name="Path 26" class="cls-1" d="M322.4,200.089l.3,1.454a3,3,0,0,1,1.186,0l.3-1.454A4.535,4.535,0,0,0,322.4,200.089Z" transform="translate(-322.4 -200.001)"/>
      </g>
    </g>
  </g>
</svg>
