<svg xmlns="http://www.w3.org/2000/svg" viewBox="509 2981 43 43">
  <defs>
    <style>
      .cls-1 {
        fill: #394360;
      }
    </style>
  </defs>
  <g id="paper-plane" transform="translate(509 2981)">
    <g id="Group_75" data-name="Group 75" transform="translate(4.535 0)">
      <g id="Group_74" data-name="Group 74" transform="translate(0 0)">
        <path id="Path_33" data-name="Path 33" class="cls-1" d="M92.041.11A.84.84,0,0,0,91.2.117l-15.39,9.1a.84.84,0,0,0,.855,1.446L87.7,4.134,67.136,25.475l-10.23-3.13,13.351-7.895A.84.84,0,0,0,69.4,13L54.412,21.869a.84.84,0,0,0,.182,1.526l12.217,3.738,5.39,9.81a.2.2,0,0,0,.017.026.837.837,0,0,0,1.306.17l6.2-6.057,11.658,3.566a.84.84,0,0,0,1.086-.8V.84A.84.84,0,0,0,92.041.11ZM72.246,27.65a.84.84,0,0,0-.149.478v5.137l-3.68-6.7L84.7,9.668Zm1.53,6.893v-5.28l4.114,1.259ZM90.785,32.71l-16.5-5.049,16.5-23.823Z" transform="translate(-53.999 0)"/>
      </g>
    </g>
    <g id="Group_77" data-name="Group 77" transform="translate(4.535 28.945)">
      <g id="Group_76" data-name="Group 76">
        <path id="Path_34" data-name="Path 34" class="cls-1" d="M63.273,344.894a.84.84,0,0,0-1.188,0l-7.84,7.84a.84.84,0,0,0,1.188,1.188l7.84-7.84A.84.84,0,0,0,63.273,344.894Z" transform="translate(-53.999 -344.648)"/>
      </g>
    </g>
    <g id="Group_79" data-name="Group 79" transform="translate(0 39.388)">
      <g id="Group_78" data-name="Group 78" transform="translate(0)">
        <path id="Path_35" data-name="Path 35" class="cls-1" d="M3.366,469.247a.84.84,0,0,0-1.188,0L.246,471.178a.84.84,0,1,0,1.188,1.188l1.932-1.932A.84.84,0,0,0,3.366,469.247Z" transform="translate(0 -469.001)"/>
      </g>
    </g>
    <g id="Group_81" data-name="Group 81" transform="translate(10.547 41.271)">
      <g id="Group_80" data-name="Group 80">
        <path id="Path_36" data-name="Path 36" class="cls-1" d="M127.014,491.656a.839.839,0,1,0,.246.594A.846.846,0,0,0,127.014,491.656Z" transform="translate(-125.58 -491.41)"/>
      </g>
    </g>
    <g id="Group_83" data-name="Group 83" transform="translate(12.643 35.022)">
      <g id="Group_82" data-name="Group 82">
        <path id="Path_37" data-name="Path 37" class="cls-1" d="M156.121,417.252a.84.84,0,0,0-1.188,0L150.78,421.4a.84.84,0,1,0,1.188,1.188l4.153-4.153A.84.84,0,0,0,156.121,417.252Z" transform="translate(-150.534 -417.006)"/>
      </g>
    </g>
    <g id="Group_85" data-name="Group 85" transform="translate(26.964 34.703)">
      <g id="Group_84" data-name="Group 84">
        <path id="Path_38" data-name="Path 38" class="cls-1" d="M326.651,413.457a.84.84,0,0,0-1.188,0l-4.164,4.164a.84.84,0,1,0,1.188,1.188l4.164-4.164A.84.84,0,0,0,326.651,413.457Z" transform="translate(-321.053 -413.211)"/>
      </g>
    </g>
    <g id="Group_87" data-name="Group 87" transform="translate(22.376 11.202)">
      <g id="Group_86" data-name="Group 86">
        <path id="Path_39" data-name="Path 39" class="cls-1" d="M267.864,133.626a.839.839,0,1,0,.246.595A.846.846,0,0,0,267.864,133.626Z" transform="translate(-266.43 -133.38)"/>
      </g>
    </g>
  </g>
</svg>
