<?xml version="1.0" encoding="iso-8859-1"?>
<!-- Generator: Adobe Illustrator 19.0.0, SVG Export Plug-In . SVG Version: 6.00 Build 0)  -->
<svg xmlns="http://www.w3.org/2000/svg" xmlns:xlink="http://www.w3.org/1999/xlink" version="1.1" id="Capa_1" x="0px" y="0px" viewBox="0 0 464.003 464.003" style="enable-background:new 0 0 464.003 464.003;" xml:space="preserve" width="512px" height="512px">
<g>
	<g>
		<path d="M413.666,129.766c-0.002-0.002-0.004-0.004-0.006-0.006l-120-119.432c-3.124-3.123-8.188-3.123-11.312,0L255.996,36.8V8    c0-4.418-3.582-8-8-8h-192c-4.418,0-8,3.582-8,8v336c0,4.418,3.582,8,8,8h8v11.784c-0.065,35.29,11.833,69.559,33.752,97.216    c2.761,3.451,7.797,4.009,11.248,1.248s4.009-7.797,1.248-11.248c-19.657-24.814-30.32-55.56-30.248-87.216V352h32v54.728    c0,4.418,3.582,8,8,8s8-3.582,8-8v-94.592c0-8.837,7.163-16,16-16s16,7.163,16,16v70.456c0,2.114,0.837,4.141,2.328,5.64    l3.712,3.736c16.712,17.116,26.035,40.11,25.96,64.032c0,4.418,3.582,8,8,8s8-3.582,8-8c-0.007-17.53-4.25-34.799-12.368-50.336    c11.396-15.748,18.295-34.297,19.96-53.664h32.408c4.418,0,8-3.582,8-8v-44.688L413.66,141.08    C416.786,137.958,416.789,132.892,413.666,129.766z M186.228,391.04c-2.713-3.646-5.669-7.104-8.848-10.352l-1.384-1.4V352h23.488    C198.101,365.854,193.567,379.208,186.228,391.04z M239.996,336h-64v-23.864c0.19-17.619-13.939-32.056-31.558-32.246    c-14.746-0.159-27.68,9.81-31.282,24.11h-17.16v-32c0-4.418-3.582-8-8-8s-8,3.582-8,8v40c0,4.418,3.582,8,8,8h24v16h-48V16h176    V336z M255.996,276.632v-25.32l109.656-109.656c3.123-3.124,3.123-8.188,0-11.312l-16-16c-3.178-3.07-8.242-2.982-11.312,0.196    c-2.994,3.1-2.994,8.015,0,11.116L348.684,136l-92.688,92.688V107.312l32-32l10.344,10.344c3.178,3.07,8.242,2.982,11.312-0.196    c2.995-3.1,2.995-8.016,0-11.116l-16-16c-3.124-3.123-8.188-3.123-11.312,0l-26.344,26.344v-25.24l32-32.136l108.68,108.144    L255.996,276.632z" fill="#394360"/>
	</g>
</g>
<g>
	<g>
		<path d="M151.996,96c-39.764,0-72,32.235-72,72c0.044,39.746,32.254,71.956,72,72c39.765,0,72-32.236,72-72    C223.996,128.235,191.761,96,151.996,96z M151.996,112c11.709,0.003,23.12,3.698,32.608,10.56    c-13.228,4.464-23.854,14.471-29.104,27.408c-8.016-16.075-25.832-24.758-43.432-21.168    C122.574,118.054,136.968,111.997,151.996,112z M95.996,168c0-13.255,10.745-24,24-24s24,10.745,24,24s-10.745,24-24,24    S95.996,181.255,95.996,168z M151.996,224c-15.028,0.003-29.423-6.054-39.928-16.8c17.6,3.59,35.416-5.093,43.432-21.168    c5.25,12.937,15.876,22.944,29.104,27.408C175.116,220.302,163.706,223.997,151.996,224z M198.028,199.808    c-17.567-0.965-31.025-15.989-30.06-33.556c0.891-16.218,13.842-29.169,30.06-30.06c6.496,9.334,9.975,20.436,9.968,31.808    C208.003,179.372,204.524,190.474,198.028,199.808z" fill="#394360"/>
	</g>
</g>
<g>
	<g>
		<path d="M103.996,32h-16c-4.418,0-8,3.582-8,8v40c0,4.418,3.582,8,8,8s8-3.582,8-8V48h8c4.418,0,8-3.582,8-8    S108.414,32,103.996,32z" fill="#394360"/>
	</g>
</g>
<g>
	<g>
		<path d="M215.996,264c-4.418,0-8,3.582-8,8v32h-8c-4.418,0-8,3.582-8,8s3.582,8,8,8h16c4.418,0,8-3.582,8-8v-40    C223.996,267.582,220.414,264,215.996,264z" fill="#394360"/>
	</g>
</g>
<g>
	<g>
		<path d="M215.996,32h-16c-4.418,0-8,3.582-8,8s3.582,8,8,8h8v32c0,4.418,3.582,8,8,8s8-3.582,8-8V40    C223.996,35.582,220.414,32,215.996,32z" fill="#394360"/>
	</g>
</g>
<g>
</g>
<g>
</g>
<g>
</g>
<g>
</g>
<g>
</g>
<g>
</g>
<g>
</g>
<g>
</g>
<g>
</g>
<g>
</g>
<g>
</g>
<g>
</g>
<g>
</g>
<g>
</g>
<g>
</g>
</svg>
