<svg xmlns="http://www.w3.org/2000/svg" viewBox="1218 18 43.859 43.859">
  <defs>
    <style>
      .cls-1 {
        fill: none;
      }

      .cls-2 {
        fill: #fff;
      }
    </style>
  </defs>
  <g id="phone-white" transform="translate(1218 18)">
    <path id="Path_1" data-name="Path 1" class="cls-1" d="M0,0H43.859V43.859H0Z"/>
    <path id="Path_2" data-name="Path 2" class="cls-2" d="M9.615,17.236A27.684,27.684,0,0,0,21.658,29.279l4.02-4.02a1.817,1.817,0,0,1,1.864-.439,20.846,20.846,0,0,0,6.524,1.042,1.833,1.833,0,0,1,1.827,1.827v6.378a1.833,1.833,0,0,1-1.827,1.827A31.064,31.064,0,0,1,3,4.827,1.833,1.833,0,0,1,4.827,3h6.4a1.833,1.833,0,0,1,1.827,1.827,20.761,20.761,0,0,0,1.042,6.524,1.834,1.834,0,0,1-.457,1.864Z" transform="translate(2.482 2.482)"/>
  </g>
</svg>
